<?xml version="1.0" encoding="utf-8"?>
<!-- Generator: Adobe Illustrator 22.1.0, SVG Export Plug-In . SVG Version: 6.00 Build 0)  -->
<svg version="1.1" id="Capa_1" xmlns="http://www.w3.org/2000/svg" xmlns:xlink="http://www.w3.org/1999/xlink" x="0px" y="0px"
	 viewBox="0 0 247.6 277.6" style="enable-background:new 0 0 247.6 277.6;" xml:space="preserve">
<style type="text/css">
	.st0{fill:#2B4697;}
</style>
<g>
	<path class="st0" d="M86.9,134.9c-3.4,0-6.4,2-9.1,6c-2.7,4-4.4,9.1-5.2,15.1c1.1,0.4,2.2,0.6,3.1,0.6c4.8,0,9.1-1.5,12.7-4.5
		s5.4-6.4,5.4-10.4C93.9,137.2,91.6,134.9,86.9,134.9z"/>
	<path class="st0" d="M120.2,39.8c-49.9,0-90.4,40.5-90.4,90.4c0,49.9,40.5,90.4,90.4,90.4c49.9,0,90.4-40.5,90.4-90.4
		C210.6,80.3,170.1,39.8,120.2,39.8z M83.5,177.2c6.6,0,11.9-4.2,16.1-12.5c1,0.7,1.5,1.4,1.5,2.3c0,1.2-1.3,3.3-3.8,6.2
		c-6.7,7.7-13.3,11.6-19.8,11.6c-4,0-7.3-1.6-9.8-4.7s-3.9-7.2-3.9-12.1c0-8.9,3.4-17.9,10.1-27s13.4-13.7,20-13.7
		c4.8,0,7.1,2.6,7.1,7.7c0,5.7-2.8,11.3-8.3,16.8s-12.4,9.3-20.4,11.4C73.2,172.5,76.9,177.2,83.5,177.2z M158.1,129.6l-8.7,13.3
		l-6.3,9.9c-0.4,0.6-1.6,2.7-3.8,6.4l-3.5,6.2c-0.5,0.9-1.5,2.9-3,6.2l-13.4,13.2c-2-16.3-5.6-34.7-10.8-55.3
		c-4.4-17.5-7.9-28.9-10.3-34.1c-2.4-5.2-5.6-7.8-9.5-7.8c-6.7,0-11.5,5.1-14.5,15.3c-1.9-0.4-2.8-1.4-2.7-3.1
		c0.2-3.2,2.1-7.7,5.8-13.6c4.5-7.2,10.2-10.7,17.2-10.7c5.7,0,10.2,2.6,13.3,7.8c3.2,5.2,6.8,15.9,11,32
		c4.6,18.1,8.2,34.3,10.9,48.6c22.4-31.3,33.6-53.1,33.6-65.5c0-4.8-1.9-8.3-5.8-10.5l11.3-12.4c5.1,2.9,7.7,7.3,7.7,13.3
		C176.6,96.4,170.4,110,158.1,129.6z"/>
</g>
</svg>
